<svg xmlns="http://www.w3.org/2000/svg" xmlns:xlink="http://www.w3.org/1999/xlink" width="1423" zoomAndPan="magnify" viewBox="0 0 1067.25 911.249972" height="1215" preserveAspectRatio="xMidYMid meet" version="1.0"><defs><g/><clipPath id="d00a2cd9c3"><path d="M 0.859375 0.542969 L 542 0.542969 L 542 677.265625 L 0.859375 677.265625 Z M 0.859375 0.542969 " clip-rule="nonzero"/></clipPath><clipPath id="20bcb66923"><rect x="0" width="542" y="0" height="678"/></clipPath><clipPath id="daa1a8cbc5"><rect x="0" width="884" y="0" height="678"/></clipPath></defs><g transform="matrix(1, 0, 0, 1, 151, 116)"><g clip-path="url(#daa1a8cbc5)"><g clip-path="url(#d00a2cd9c3)"><g transform="matrix(1, 0, 0, 1, -0.000000000000028422, -0.000000000000028422)"><g clip-path="url(#20bcb66923)"><g fill="#ffffff" fill-opacity="1"><g transform="translate(2.612903, 621.062606)"><g><path d="M 73.84375 -31 C 73.84375 -21.601562 70.644531 -13.710938 64.25 -7.328125 C 57.863281 -0.941406 50.164062 2.25 41.15625 2.25 C 32.132812 2.25 24.332031 -0.941406 17.75 -7.328125 C 11.175781 -13.710938 7.890625 -21.601562 7.890625 -31 L 7.890625 -310.03125 C 7.890625 -319.050781 11.175781 -326.753906 17.75 -333.140625 C 24.332031 -339.535156 32.132812 -342.734375 41.15625 -342.734375 C 50.164062 -342.734375 57.863281 -339.535156 64.25 -333.140625 C 70.644531 -326.753906 73.84375 -319.050781 73.84375 -310.03125 L 73.84375 -178.6875 L 49.046875 -178.6875 L 49.046875 -312.296875 C 49.046875 -317.554688 46.414062 -320.1875 41.15625 -320.1875 C 35.894531 -320.1875 33.265625 -317.554688 33.265625 -312.296875 L 33.265625 -28.75 C 33.265625 -23.488281 35.894531 -20.859375 41.15625 -20.859375 C 46.414062 -20.859375 49.046875 -23.488281 49.046875 -28.75 L 49.046875 -162.34375 L 73.84375 -162.34375 Z M 73.84375 -31 "/></g></g></g><g fill="#ffffff" fill-opacity="1"><g transform="translate(79.276177, 621.062606)"><g><path d="M 41.15625 2.25 C 32.132812 2.25 24.332031 -0.941406 17.75 -7.328125 C 11.175781 -13.710938 7.890625 -21.601562 7.890625 -31 L 7.890625 -341.046875 L 33.265625 -341.046875 L 33.265625 -28.75 C 33.265625 -23.488281 35.894531 -20.859375 41.15625 -20.859375 C 46.414062 -20.859375 49.046875 -23.488281 49.046875 -28.75 L 49.046875 -341.046875 L 73.84375 -341.046875 L 73.84375 -31 C 73.84375 -21.601562 70.644531 -13.710938 64.25 -7.328125 C 57.863281 -0.941406 50.164062 2.25 41.15625 2.25 Z M 41.15625 2.25 "/></g></g></g><g fill="#ffffff" fill-opacity="1"><g transform="translate(155.939451, 621.062606)"><g><path d="M 82.296875 -342.734375 C 91.316406 -342.734375 99.019531 -339.535156 105.40625 -333.140625 C 111.800781 -326.753906 115 -319.050781 115 -310.03125 L 115 0 L 90.1875 0 L 90.1875 -312.296875 C 90.1875 -314.546875 89.34375 -316.421875 87.65625 -317.921875 C 85.96875 -319.429688 84.179688 -320.1875 82.296875 -320.1875 C 76.660156 -320.1875 73.84375 -317.554688 73.84375 -312.296875 L 73.84375 0 L 49.046875 0 L 49.046875 -312.296875 C 49.046875 -317.554688 46.414062 -320.1875 41.15625 -320.1875 C 35.894531 -320.1875 33.265625 -317.554688 33.265625 -312.296875 L 33.265625 0 L 7.890625 0 L 7.890625 -310.03125 C 7.890625 -319.050781 11.175781 -326.753906 17.75 -333.140625 C 24.332031 -339.535156 32.132812 -342.734375 41.15625 -342.734375 C 49.039062 -342.734375 55.800781 -340.476562 61.4375 -335.96875 C 67.082031 -340.476562 74.035156 -342.734375 82.296875 -342.734375 Z M 82.296875 -342.734375 "/></g></g></g><g fill="#ffffff" fill-opacity="1"><g transform="translate(273.189216, 621.062606)"><g><path d="M 41.15625 -342.734375 C 50.164062 -342.734375 57.863281 -339.535156 64.25 -333.140625 C 70.644531 -326.753906 73.84375 -319.050781 73.84375 -310.03125 L 73.84375 -31 C 73.84375 -21.601562 70.644531 -13.710938 64.25 -7.328125 C 57.863281 -0.941406 50.164062 2.25 41.15625 2.25 C 38.894531 2.25 36.265625 1.875 33.265625 1.125 L 33.265625 52.984375 L 7.890625 52.984375 L 7.890625 -310.03125 C 7.890625 -319.050781 11.175781 -326.753906 17.75 -333.140625 C 24.332031 -339.535156 32.132812 -342.734375 41.15625 -342.734375 Z M 49.046875 -312.296875 C 49.046875 -317.554688 46.414062 -320.1875 41.15625 -320.1875 C 35.894531 -320.1875 33.265625 -317.554688 33.265625 -312.296875 L 33.265625 -28.75 C 33.265625 -23.488281 35.894531 -20.859375 41.15625 -20.859375 C 46.414062 -20.859375 49.046875 -23.488281 49.046875 -28.75 Z M 49.046875 -312.296875 "/></g></g></g><g fill="#ffffff" fill-opacity="1"><g transform="translate(349.852489, 621.062606)"><g><path d="M 7.890625 -148.8125 C 7.890625 -157.832031 11.175781 -165.628906 17.75 -172.203125 C 24.332031 -178.785156 32.132812 -182.078125 41.15625 -182.078125 C 42.65625 -182.078125 43.96875 -181.984375 45.09375 -181.796875 C 46.21875 -181.609375 47.535156 -181.328125 49.046875 -180.953125 L 49.046875 -312.296875 C 49.046875 -317.554688 46.414062 -320.1875 41.15625 -320.1875 C 35.894531 -320.1875 33.265625 -317.554688 33.265625 -312.296875 L 33.265625 -190.53125 L 7.890625 -190.53125 L 7.890625 -310.03125 C 7.890625 -319.050781 11.175781 -326.753906 17.75 -333.140625 C 24.332031 -339.535156 32.132812 -342.734375 41.15625 -342.734375 C 50.164062 -342.734375 57.863281 -339.535156 64.25 -333.140625 C 70.644531 -326.753906 73.84375 -319.050781 73.84375 -310.03125 L 73.84375 -31 C 73.84375 -21.601562 70.644531 -13.710938 64.25 -7.328125 C 57.863281 -0.941406 50.164062 2.25 41.15625 2.25 C 32.132812 2.25 24.332031 -0.941406 17.75 -7.328125 C 11.175781 -13.710938 7.890625 -21.601562 7.890625 -31 Z M 33.265625 -28.75 C 33.265625 -23.488281 35.894531 -20.859375 41.15625 -20.859375 C 46.414062 -20.859375 49.046875 -23.488281 49.046875 -28.75 L 49.046875 -151.078125 C 49.046875 -156.335938 46.414062 -158.96875 41.15625 -158.96875 C 35.894531 -158.96875 33.265625 -156.335938 33.265625 -151.078125 Z M 33.265625 -28.75 "/></g></g></g><g fill="#ffffff" fill-opacity="1"><g transform="translate(426.515763, 621.062606)"><g><path d="M 41.15625 -342.734375 C 50.164062 -342.734375 57.863281 -339.535156 64.25 -333.140625 C 70.644531 -326.753906 73.84375 -319.050781 73.84375 -310.03125 L 73.84375 0 L 49.046875 0 L 49.046875 -312.296875 C 49.046875 -317.554688 46.414062 -320.1875 41.15625 -320.1875 C 35.894531 -320.1875 33.265625 -317.554688 33.265625 -312.296875 L 33.265625 0 L 7.890625 0 L 7.890625 -310.03125 C 7.890625 -319.050781 11.175781 -326.753906 17.75 -333.140625 C 24.332031 -339.535156 32.132812 -342.734375 41.15625 -342.734375 Z M 41.15625 -342.734375 "/></g></g></g><g fill="#ffffff" fill-opacity="1"><g transform="translate(503.179037, 621.062606)"><g><path d="M 33.265625 -356.828125 L 7.890625 -356.828125 L 7.890625 -393.46875 L 33.265625 -393.46875 Z M 33.265625 -341.046875 L 33.265625 0 L 7.890625 0 L 7.890625 -341.046875 Z M 33.265625 -341.046875 "/></g></g></g></g></g></g><path fill="#000000" d="M 495.453125 338.667969 L 882.621094 338.667969 L 882.621094 429.550781 L 495.453125 429.550781 L 495.453125 338.667969 " fill-opacity="1" fill-rule="nonzero"/><g fill="#ffffff" fill-opacity="1"><g transform="translate(495.452923, 412.176226)"><g><path d="M 16.859375 0.609375 C 12.265625 0.609375 8.992188 -0.367188 7.046875 -2.328125 C 5.109375 -4.296875 4.035156 -7.554688 3.828125 -12.109375 C 3.773438 -13.890625 3.757812 -15.625 3.78125 -17.3125 C 3.8125 -19 3.90625 -20.765625 4.0625 -22.609375 L 11.875 -22.609375 C 11.769531 -20.515625 11.703125 -18.441406 11.671875 -16.390625 C 11.648438 -14.347656 11.71875 -12.4375 11.875 -10.65625 C 11.976562 -9.125 12.425781 -8 13.21875 -7.28125 C 14.007812 -6.5625 15.222656 -6.203125 16.859375 -6.203125 C 18.441406 -6.203125 19.601562 -6.5625 20.34375 -7.28125 C 21.082031 -8 21.503906 -9.125 21.609375 -10.65625 C 21.765625 -12.382812 21.828125 -13.953125 21.796875 -15.359375 C 21.773438 -16.765625 21.710938 -18.414062 21.609375 -20.3125 C 21.503906 -21.789062 21.195312 -23.066406 20.6875 -24.140625 C 20.175781 -25.210938 19.257812 -25.925781 17.9375 -26.28125 L 12.796875 -27.578125 C 9.316406 -28.453125 6.9375 -29.960938 5.65625 -32.109375 C 4.382812 -34.253906 3.695312 -37.164062 3.59375 -40.84375 C 3.59375 -42.21875 3.59375 -43.617188 3.59375 -45.046875 C 3.59375 -46.484375 3.617188 -47.890625 3.671875 -49.265625 C 3.828125 -53.816406 4.890625 -57.0625 6.859375 -59 C 8.828125 -60.9375 12.160156 -61.90625 16.859375 -61.90625 C 21.253906 -61.90625 24.445312 -60.9375 26.4375 -59 C 28.425781 -57.0625 29.5 -53.816406 29.65625 -49.265625 C 29.707031 -47.992188 29.71875 -46.445312 29.6875 -44.625 C 29.664062 -42.8125 29.628906 -40.988281 29.578125 -39.15625 L 21.609375 -39.15625 C 21.660156 -41.09375 21.695312 -43.019531 21.71875 -44.9375 C 21.75 -46.851562 21.710938 -48.78125 21.609375 -50.71875 C 21.503906 -53.632812 19.894531 -55.09375 16.78125 -55.09375 C 15.195312 -55.09375 14.019531 -54.734375 13.25 -54.015625 C 12.488281 -53.304688 12.054688 -52.207031 11.953125 -50.71875 C 11.796875 -49.09375 11.726562 -47.445312 11.75 -45.78125 C 11.78125 -44.125 11.847656 -42.476562 11.953125 -40.84375 C 12.054688 -39.15625 12.375 -37.828125 12.90625 -36.859375 C 13.445312 -35.890625 14.429688 -35.222656 15.859375 -34.859375 L 20.453125 -33.796875 C 24.085938 -32.921875 26.539062 -31.375 27.8125 -29.15625 C 29.09375 -26.9375 29.804688 -23.988281 29.953125 -20.3125 C 30.003906 -18.675781 30.015625 -17.269531 29.984375 -16.09375 C 29.960938 -14.914062 29.929688 -13.585938 29.890625 -12.109375 C 29.734375 -7.554688 28.65625 -4.296875 26.65625 -2.328125 C 24.664062 -0.367188 21.398438 0.609375 16.859375 0.609375 Z M 16.859375 0.609375 "/></g></g></g><g fill="#ffffff" fill-opacity="1"><g transform="translate(532.077165, 412.176226)"><g><path d="M 16.859375 0.609375 C 12.265625 0.609375 8.957031 -0.359375 6.9375 -2.296875 C 4.914062 -4.234375 3.851562 -7.476562 3.75 -12.03125 C 3.5 -24.445312 3.5 -36.882812 3.75 -49.34375 C 3.851562 -53.84375 4.914062 -57.0625 6.9375 -59 C 8.957031 -60.9375 12.265625 -61.90625 16.859375 -61.90625 C 21.453125 -61.90625 24.742188 -60.9375 26.734375 -59 C 28.734375 -57.0625 29.804688 -53.84375 29.953125 -49.34375 C 30.265625 -36.832031 30.265625 -24.394531 29.953125 -12.03125 C 29.804688 -7.476562 28.734375 -4.234375 26.734375 -2.296875 C 24.742188 -0.359375 21.453125 0.609375 16.859375 0.609375 Z M 16.859375 -6.203125 C 19.972656 -6.203125 21.582031 -7.660156 21.6875 -10.578125 C 21.84375 -14.816406 21.929688 -19.234375 21.953125 -23.828125 C 21.972656 -28.429688 21.957031 -33.03125 21.90625 -37.625 C 21.863281 -42.21875 21.789062 -46.609375 21.6875 -50.796875 C 21.582031 -53.660156 19.972656 -55.09375 16.859375 -55.09375 C 13.691406 -55.09375 12.082031 -53.660156 12.03125 -50.796875 C 11.875 -46.609375 11.769531 -42.21875 11.71875 -37.625 C 11.664062 -33.03125 11.664062 -28.429688 11.71875 -23.828125 C 11.769531 -19.234375 11.875 -14.816406 12.03125 -10.578125 C 12.082031 -7.660156 13.691406 -6.203125 16.859375 -6.203125 Z M 16.859375 -6.203125 "/></g></g></g><g fill="#ffffff" fill-opacity="1"><g transform="translate(568.854664, 412.176226)"><g><path d="M 16.78125 0.609375 C 12.132812 0.609375 8.800781 -0.359375 6.78125 -2.296875 C 4.757812 -4.234375 3.722656 -7.476562 3.671875 -12.03125 C 3.472656 -28.425781 3.472656 -44.847656 3.671875 -61.296875 L 11.953125 -61.296875 C 11.847656 -53.128906 11.796875 -44.675781 11.796875 -35.9375 C 11.796875 -27.195312 11.847656 -18.742188 11.953125 -10.578125 C 11.953125 -7.660156 13.5625 -6.203125 16.78125 -6.203125 C 19.945312 -6.203125 21.53125 -7.660156 21.53125 -10.578125 C 21.582031 -18.742188 21.617188 -27.195312 21.640625 -35.9375 C 21.671875 -44.675781 21.632812 -53.128906 21.53125 -61.296875 L 29.8125 -61.296875 C 30.007812 -44.847656 30.007812 -28.425781 29.8125 -12.03125 C 29.757812 -7.476562 28.722656 -4.234375 26.703125 -2.296875 C 24.679688 -0.359375 21.375 0.609375 16.78125 0.609375 Z M 16.78125 0.609375 "/></g></g></g><g fill="#ffffff" fill-opacity="1"><g transform="translate(605.402289, 412.176226)"><g><path d="M 10.65625 0 L 10.65625 -53.9375 L 1.765625 -53.9375 L 1.765625 -61.296875 L 27.734375 -61.296875 L 27.734375 -53.9375 L 18.921875 -53.9375 L 18.921875 0 Z M 10.65625 0 "/></g></g></g><g fill="#ffffff" fill-opacity="1"><g transform="translate(637.965719, 412.176226)"><g><path d="M 3.53125 0 L 3.53125 -61.296875 L 11.875 -61.296875 L 11.875 -34.71875 L 20.765625 -34.71875 L 20.765625 -61.296875 L 29.046875 -61.296875 L 29.046875 0 L 20.765625 0 L 20.765625 -27.359375 L 11.875 -27.359375 L 11.875 0 Z M 3.53125 0 "/></g></g></g><g fill="#ffffff" fill-opacity="1"><g transform="translate(673.593928, 412.176226)"><g/></g></g><g fill="#ffffff" fill-opacity="1"><g transform="translate(693.055462, 412.176226)"><g><path d="M 1.765625 0 L 9.265625 -61.296875 L 23.0625 -61.296875 L 30.578125 0 L 22.140625 0 L 20.6875 -15.328125 L 11.71875 -15.328125 L 10.265625 0 Z M 12.484375 -22.609375 L 19.84375 -22.609375 L 18.546875 -36.09375 L 17.234375 -53.9375 L 15.09375 -53.9375 L 13.796875 -36.09375 Z M 12.484375 -22.609375 "/></g></g></g><g fill="#ffffff" fill-opacity="1"><g transform="translate(728.223943, 412.176226)"><g><path d="M 3.53125 0 L 3.53125 -61.296875 L 25.4375 -61.296875 L 25.4375 -53.9375 L 11.875 -53.9375 L 11.875 -34.71875 L 24.671875 -34.71875 L 24.671875 -27.359375 L 11.875 -27.359375 L 11.875 0 Z M 3.53125 0 "/></g></g></g><g fill="#ffffff" fill-opacity="1"><g transform="translate(758.795265, 412.176226)"><g><path d="M 3.53125 0 L 3.53125 -61.296875 L 15.625 -61.296875 C 20.175781 -61.296875 23.484375 -60.328125 25.546875 -58.390625 C 27.617188 -56.453125 28.734375 -53.285156 28.890625 -48.890625 C 28.992188 -46.078125 29.046875 -43.597656 29.046875 -41.453125 C 29.046875 -39.304688 28.992188 -36.984375 28.890625 -34.484375 C 28.679688 -28.765625 26.789062 -25.085938 23.21875 -23.453125 L 29.890625 0 L 21.078125 0 L 15.40625 -22.0625 L 11.875 -22.0625 L 11.875 0 Z M 11.875 -29.421875 L 15.5625 -29.421875 C 18.769531 -29.421875 20.453125 -30.953125 20.609375 -34.015625 C 20.867188 -39.128906 20.867188 -44.210938 20.609375 -49.265625 C 20.453125 -52.378906 18.789062 -53.9375 15.625 -53.9375 L 11.875 -53.9375 Z M 11.875 -29.421875 "/></g></g></g><g fill="#ffffff" fill-opacity="1"><g transform="translate(793.580656, 412.176226)"><g><path d="M 3.53125 0 L 3.53125 -61.296875 L 11.875 -61.296875 L 11.875 0 Z M 3.53125 0 "/></g></g></g><g fill="#ffffff" fill-opacity="1"><g transform="translate(812.046156, 412.176226)"><g><path d="M 16.703125 0.6875 C 12.054688 0.6875 8.75 -0.289062 6.78125 -2.25 C 4.8125 -4.21875 3.773438 -7.476562 3.671875 -12.03125 C 3.617188 -15.863281 3.582031 -19.925781 3.5625 -24.21875 C 3.539062 -28.507812 3.539062 -32.796875 3.5625 -37.078125 C 3.582031 -41.367188 3.617188 -45.429688 3.671875 -49.265625 C 3.722656 -53.253906 4.769531 -56.359375 6.8125 -58.578125 C 8.863281 -60.796875 12.160156 -61.90625 16.703125 -61.90625 C 21.203125 -61.90625 24.457031 -60.921875 26.46875 -58.953125 C 28.488281 -56.992188 29.550781 -53.765625 29.65625 -49.265625 C 29.707031 -47.890625 29.734375 -46.203125 29.734375 -44.203125 C 29.734375 -42.210938 29.707031 -40.53125 29.65625 -39.15625 L 21.375 -39.15625 C 21.375 -40.84375 21.382812 -42.757812 21.40625 -44.90625 C 21.4375 -47.050781 21.425781 -48.988281 21.375 -50.71875 C 21.320312 -53.632812 19.765625 -55.09375 16.703125 -55.09375 C 13.640625 -55.09375 12.054688 -53.632812 11.953125 -50.71875 C 11.796875 -44.238281 11.71875 -37.550781 11.71875 -30.65625 C 11.71875 -23.757812 11.796875 -17.066406 11.953125 -10.578125 C 12.054688 -7.609375 13.640625 -6.125 16.703125 -6.125 C 19.972656 -6.125 21.632812 -7.609375 21.6875 -10.578125 C 21.738281 -12.359375 21.765625 -14.359375 21.765625 -16.578125 C 21.765625 -18.804688 21.738281 -20.789062 21.6875 -22.53125 L 29.953125 -22.53125 C 30.003906 -20.84375 30.03125 -19.101562 30.03125 -17.3125 C 30.03125 -15.53125 30.003906 -13.769531 29.953125 -12.03125 C 29.859375 -7.476562 28.773438 -4.21875 26.703125 -2.25 C 24.628906 -0.289062 21.296875 0.6875 16.703125 0.6875 Z M 16.703125 0.6875 "/></g></g></g><g fill="#ffffff" fill-opacity="1"><g transform="translate(847.444491, 412.176226)"><g><path d="M 1.765625 0 L 9.265625 -61.296875 L 23.0625 -61.296875 L 30.578125 0 L 22.140625 0 L 20.6875 -15.328125 L 11.71875 -15.328125 L 10.265625 0 Z M 12.484375 -22.609375 L 19.84375 -22.609375 L 18.546875 -36.09375 L 17.234375 -53.9375 L 15.09375 -53.9375 L 13.796875 -36.09375 Z M 12.484375 -22.609375 "/></g></g></g></g></g></svg>